<svg id="visual" viewBox="0 0 900 600" width="900" height="600" xmlns="http://www.w3.org/2000/svg" xmlns:xlink="http://www.w3.org/1999/xlink" version="1.1"><rect x="0" y="0" width="900" height="600" fill="#f2f2f8"></rect><defs><linearGradient id="grad1_0" x1="33.3%" y1="0%" x2="100%" y2="100%"><stop offset="20%" stop-color="#f2f2f8" stop-opacity="1"></stop><stop offset="80%" stop-color="#f2f2f8" stop-opacity="1"></stop></linearGradient></defs><defs><linearGradient id="grad2_0" x1="0%" y1="0%" x2="66.7%" y2="100%"><stop offset="20%" stop-color="#f2f2f8" stop-opacity="1"></stop><stop offset="80%" stop-color="#f2f2f8" stop-opacity="1"></stop></linearGradient></defs><g transform="translate(900, 0)"><path d="M0 486.7C-63.6 475.8 -127.1 464.9 -181.8 438.8C-236.4 412.8 -282.1 371.7 -328.8 328.8C-375.5 285.9 -423.2 241.4 -449.7 186.3C-476.2 131.2 -481.5 65.6 -486.7 0L0 0Z" fill="#140021"></path></g><g transform="translate(0, 600)"><path d="M0 -486.7C54 -450.3 108 -413.9 160.7 -388C213.4 -362.2 264.8 -346.9 316.8 -316.8C368.7 -286.6 421.3 -241.6 449.7 -186.3C478.1 -131 482.4 -65.5 486.7 0L0 0Z" fill="#140021"></path></g></svg>